<?xml version="1.0" standalone="no"?>
<!DOCTYPE svg PUBLIC "-//W3C//DTD SVG 20010904//EN"
 "http://www.w3.org/TR/2001/REC-SVG-20010904/DTD/svg10.dtd">
<svg version="1.0" xmlns="http://www.w3.org/2000/svg"
 width="80.000000pt" height="80.000000pt" viewBox="0 0 80.000000 80.000000"
 preserveAspectRatio="xMidYMid meet">
<metadata>
Created by potrace 1.16, written by Peter Selinger 2001-2019
</metadata>
<g transform="translate(0.000000,80.000000) scale(0.200000,-0.200000)"
fill="#000000" stroke="none">
<path d="M67 383 c-4 -3 -7 -62 -7 -130 l0 -123 140 0 140 0 0 95 c0 92 -1 95
-23 95 -29 0 -47 18 -47 47 0 22 -2 23 -98 23 -54 0 -102 -3 -105 -7z"/>
<path d="M22 322 c-9 -7 -12 -40 -10 -133 l3 -124 185 0 185 0 3 124 c3 119
-2 140 -28 141 -3 0 -4 -49 -2 -110 l4 -110 -162 0 -162 0 4 110 c2 61 1 110
-2 110 -3 0 -11 -4 -18 -8z"/>
</g>
</svg>
