<?xml version="1.0"?>
<svg version="1.1" xmlns="http://www.w3.org/2000/svg" width="255" height="36" style=""><path fill="#" d="M26.145,25.725l0,1.275l-4.77,0l0-1.275l1.125-0.405l-0.36-1.095l-3.33,0l-0.375,1.08l1.17,0.42l0,1.275l-4.53,0l0-1.275l1.095-0.42l3.3-8.835l2.4-0.045l3.225,8.88z M21.645,22.62l-1.125-3.555l-1.185,3.555l2.31,0z M33.33765,27l-0.135-0.795c-0.21,0.21-0.975,0.945-2.265,0.945c-2.1,0-3.075-1.53-3.075-4.005c0-2.82,1.35-4.395,4.095-4.395c0.36,0,0.795,0.075,1.125,0.15l0-1.905l-1.2-0.3l0-1.2l3.45-0.12l0,10.02l1.2,0.3l0,1.2z M33.08265,24.495l0-3.72c-0.285-0.135-0.735-0.225-1.17-0.225c-1.275,0-1.725,0.975-1.725,2.475c0,1.515,0.42,2.325,1.44,2.325c0.96,0,1.455-0.855,1.455-0.855z M43.5153,27l-0.27-0.975s-1.155,1.125-2.43,1.125c-1.455,0-2.34-0.855-2.34-2.355c0-1.77,1.335-2.475,3.615-2.475l1.05,0l0-0.825c0-0.765-0.405-1.095-1.155-1.095c-0.765,0-1.32,0.225-1.32,0.225l-0.225,0.945l-1.35,0l-0.105-2.22s1.815-0.6,3.255-0.6c2.28,0,3.15,0.795,3.15,2.97l0,3.705l1.125,0.27l0,1.2z M43.1403,23.595l-0.855,0c-1.17,0-1.635,0.3-1.635,0.975c0,0.57,0.315,0.9,0.885,0.9c0.795,0,1.605-0.87,1.605-0.87l0-1.005z M51.60795,18.9l0.135,1.035s1.08-1.185,2.085-1.185c0.825,0,1.395,0.27,1.395,0.27l-0.12,2.88l-1.35,0l-0.225-1.275c-0.87,0-1.62,0.84-1.62,0.84l0,3.96l1.5,0.375l0,1.2l-4.95,0l0-1.2l1.2-0.375l0-4.875l-1.2-0.375l0-1.2z M58.2606,24.375l0.12,0.975s0.525,0.15,1.26,0.15c0.825,0,1.23-0.255,1.23-0.735c0-1.23-4.005-0.78-4.005-3.45c0-1.875,1.5-2.565,3.09-2.565c1.35,0,2.79,0.45,2.79,0.45l-0.06,2.25l-1.275,0l-0.225-0.9s-0.435-0.15-1.035-0.15c-0.645,0-1.035,0.27-1.035,0.765c0,1.215,4.005,0.69,4.005,3.285c0,1.725-1.395,2.7-3.45,2.7c-1.425,0-2.76-0.33-2.76-0.33l0-2.445l1.35,0z M68.43825,15.375l0,4.395c0.435-0.36,1.41-1.02,2.52-1.02c1.53,0,2.355,1.02,2.355,2.7l0,3.975l1.05,0.375l0,1.2l-4.08,0l0-1.2l0.78-0.36l0-3.63c0-0.75-0.3-1.2-0.99-1.2c-0.84,0-1.635,0.795-1.635,0.795l0,4.02l0.795,0.375l0,1.2l-4.245,0l0-1.2l1.2-0.375l0-8.43l-1.2-0.3l0-1.2z M88.25355,19.65l-0.375-1.29s-0.705-0.24-1.695-0.24c-1.605,0-2.505,1.17-2.505,3.675c0,2.43,0.945,3.48,2.55,3.48c0.78,0,1.65-0.27,1.65-0.27l0-1.89l-1.125-0.345l0-1.23l4.32-0.075l0,1.305l-1.02,0.345l0,3.06s-1.545,1.005-4.08,1.005c-3.045,0-4.8-1.83-4.8-5.31c0-3.525,1.98-5.625,5.055-5.625c1.815,0,3.495,0.705,3.495,0.705l-0.075,2.7l-1.395,0z M92.8662,20.175l0-1.2l3.45-0.075l0,5.175c0,0.825,0.24,1.2,0.915,1.2c0.975,0,1.695-0.81,1.695-0.81l0-3.915l-1.2-0.375l0-1.2l3.45-0.075l0,6.525l1.2,0.3l0,1.17l-3.165,0.105l-0.15-1.05s-1.2,1.2-2.625,1.2c-1.5,0-2.37-1.005-2.37-2.685l0-3.915z M107.39385,18.9l0.135,1.035s1.08-1.185,2.085-1.185c0.825,0,1.395,0.27,1.395,0.27l-0.12,2.88l-1.35,0l-0.225-1.275c-0.87,0-1.62,0.84-1.62,0.84l0,3.96l1.5,0.375l0,1.2l-4.95,0l0-1.2l1.2-0.375l0-4.875l-1.2-0.375l0-1.2z M112.3515,20.175l0-1.2l3.45-0.075l0,5.175c0,0.825,0.24,1.2,0.915,1.2c0.975,0,1.695-0.81,1.695-0.81l0-3.915l-1.2-0.375l0-1.2l3.45-0.075l0,6.525l1.2,0.3l0,1.17l-3.165,0.105l-0.15-1.05s-1.2,1.2-2.625,1.2c-1.5,0-2.37-1.005-2.37-2.685l0-3.915z M137.72415,25.8l0,1.2l-4.065,0l0-1.2l0.795-0.375l0-3.57c0-0.825-0.24-1.23-0.87-1.23c-0.975,0-1.665,0.78-1.665,0.78l0,4.02l0.78,0.375l0,1.2l-3.81,0l0-1.2l0.78-0.375l0-3.57c0-0.825-0.21-1.23-0.855-1.23c-0.975,0-1.68,0.78-1.68,0.78l0,4.02l0.795,0.375l0,1.2l-4.2,0l0-1.2l1.155-0.375l0-4.875l-1.14-0.375l0-1.2l3.135-0.075l0.105,1.065s1.305-1.215,2.625-1.215c1.065,0,1.725,0.495,2.07,1.29c0.255-0.255,1.38-1.29,2.715-1.29c1.575,0,2.31,1.02,2.31,2.7l0,3.975z M144.7818,27l-0.27-0.975s-1.155,1.125-2.43,1.125c-1.455,0-2.34-0.855-2.34-2.355c0-1.77,1.335-2.475,3.615-2.475l1.05,0l0-0.825c0-0.765-0.405-1.095-1.155-1.095c-0.765,0-1.32,0.225-1.32,0.225l-0.225,0.945l-1.35,0l-0.105-2.22s1.815-0.6,3.255-0.6c2.28,0,3.15,0.795,3.15,2.97l0,3.705l1.125,0.27l0,1.2z M144.4068,23.595l-0.855,0c-1.17,0-1.635,0.3-1.635,0.975c0,0.57,0.315,0.9,0.885,0.9c0.795,0,1.605-0.87,1.605-0.87l0-1.005z M152.90445,18.9l0.105,1.035s1.425-1.155,2.76-1.155c1.455,0,2.28,1.035,2.28,2.67l0,3.975l1.05,0.375l0,1.2l-4.125,0l0-1.2l0.825-0.375l0-3.57c0-0.69-0.39-1.2-1.02-1.2c-0.93,0-1.605,0.855-1.605,0.855l0,3.915l0.825,0.375l0,1.2l-4.275,0l0-1.2l1.2-0.375l0-4.875l-1.2-0.375l0-1.2z M166.3671,25.08l0.54,1.14c-0.735,0.54-1.575,0.93-2.55,0.93c-1.725,0-2.22-1.2-2.22-2.925l0-3.45l-1.395,0l0-1.455l1.395-0.195l0-2.07l2.25-0.405l0,2.475l2.1,0l0,1.65l-2.1,0l0,3.3c0,0.96,0.165,1.35,0.795,1.35c0.405,0,0.99-0.24,1.185-0.345z M171.77475,18.9l0.135,1.035s1.08-1.185,2.085-1.185c0.825,0,1.395,0.27,1.395,0.27l-0.12,2.88l-1.35,0l-0.225-1.275c-0.87,0-1.62,0.84-1.62,0.84l0,3.96l1.5,0.375l0,1.2l-4.95,0l0-1.2l1.2-0.375l0-4.875l-1.2-0.375l0-1.2z M182.1474,27l-0.27-0.975s-1.155,1.125-2.43,1.125c-1.455,0-2.34-0.855-2.34-2.355c0-1.77,1.335-2.475,3.615-2.475l1.05,0l0-0.825c0-0.765-0.405-1.095-1.155-1.095c-0.765,0-1.32,0.225-1.32,0.225l-0.225,0.945l-1.35,0l-0.105-2.22s1.815-0.6,3.255-0.6c2.28,0,3.15,0.795,3.15,2.97l0,3.705l1.125,0.27l0,1.2z M181.7724,23.595l-0.855,0c-1.17,0-1.635,0.3-1.635,0.975c0,0.57,0.315,0.9,0.885,0.9c0.795,0,1.605-0.87,1.605-0.87l0-1.005z"/><path fill="#" d="M199.39505,19.8l-0.345-1.44s-0.705-0.24-1.68-0.24c-1.575,0-2.475,1.17-2.475,3.675c0,2.43,0.975,3.45,2.55,3.45c1.5,0,2.85-1.05,2.85-1.05l0.825,1.35s-1.575,1.635-3.93,1.635c-3.045,0-4.8-1.83-4.8-5.31c0-3.525,1.98-5.625,5.055-5.625c1.815,0,3.495,0.705,3.495,0.705l-0.075,2.85l-1.47,0z M206.3777,25.425l1.35,0.375l0,1.2l-4.815,0l0-1.2l1.2-0.375l0-8.43l-1.2-0.3l0-1.2l3.465-0.12l0,10.05z M214.48535,27l-0.27-0.975s-1.155,1.125-2.43,1.125c-1.455,0-2.34-0.855-2.34-2.355c0-1.77,1.335-2.475,3.615-2.475l1.05,0l0-0.825c0-0.765-0.405-1.095-1.155-1.095c-0.765,0-1.32,0.225-1.32,0.225l-0.225,0.945l-1.35,0l-0.105-2.22s1.815-0.6,3.255-0.6c2.28,0,3.15,0.795,3.15,2.97l0,3.705l1.125,0.27l0,1.2z M214.11035,23.595l-0.855,0c-1.17,0-1.635,0.3-1.635,0.975c0,0.57,0.315,0.9,0.885,0.9c0.795,0,1.605-0.87,1.605-0.87l0-1.005z M220.823,24.375l0.12,0.975s0.525,0.15,1.26,0.15c0.825,0,1.23-0.255,1.23-0.735c0-1.23-4.005-0.78-4.005-3.45c0-1.875,1.5-2.565,3.09-2.565c1.35,0,2.79,0.45,2.79,0.45l-0.06,2.25l-1.275,0l-0.225-0.9s-0.435-0.15-1.035-0.15c-0.645,0-1.035,0.27-1.035,0.765c0,1.215,4.005,0.69,4.005,3.285c0,1.725-1.395,2.7-3.45,2.7c-1.425,0-2.76-0.33-2.76-0.33l0-2.445l1.35,0z M229.17065,24.375l0.12,0.975s0.525,0.15,1.26,0.15c0.825,0,1.23-0.255,1.23-0.735c0-1.23-4.005-0.78-4.005-3.45c0-1.875,1.5-2.565,3.09-2.565c1.35,0,2.79,0.45,2.79,0.45l-0.06,2.25l-1.275,0l-0.225-0.9s-0.435-0.15-1.035-0.15c-0.645,0-1.035,0.27-1.035,0.765c0,1.215,4.005,0.69,4.005,3.285c0,1.725-1.395,2.7-3.45,2.7c-1.425,0-2.76-0.33-2.76-0.33l0-2.445l1.35,0z M243.4433,23.445l-4.98,0c0.09,1.2,0.78,1.905,1.815,1.905c1.245,0,2.52-0.705,2.52-0.705l0.645,1.245s-1.5,1.26-3.42,1.26c-2.58,0-3.9-1.5-3.9-4.05c0-2.625,1.485-4.35,4.005-4.35c2.235,0,3.405,1.38,3.405,3.525c0,0.57-0.09,1.125-0.09,1.17z M238.4933,22.05l2.715,0c0-0.855-0.36-1.5-1.23-1.5c-0.84,0-1.365,0.615-1.485,1.5z M247.02095,24.375l0.12,0.975s0.525,0.15,1.26,0.15c0.825,0,1.23-0.255,1.23-0.735c0-1.23-4.005-0.78-4.005-3.45c0-1.875,1.5-2.565,3.09-2.565c1.35,0,2.79,0.45,2.79,0.45l-0.06,2.25l-1.275,0l-0.225-0.9s-0.435-0.15-1.035-0.15c-0.645,0-1.035,0.27-1.035,0.765c0,1.215,4.005,0.69,4.005,3.285c0,1.725-1.395,2.7-3.45,2.7c-1.425,0-2.76-0.33-2.76-0.33l0-2.445l1.35,0z"/></svg>
