<?xml version="1.0"?>
<svg version="1.1" xmlns="http://www.w3.org/2000/svg" width="340" height="36" style=""><path fill="#" d="M29.86,28.3l0,1.7l-6.36,0l0-1.7l1.5-0.54l-0.48-1.46l-4.44,0l-0.5,1.44l1.56,0.56l0,1.7l-6.04,0l0-1.7l1.46-0.56l4.4-11.78l3.2-0.06l4.3,11.84z M23.86,24.16l-1.5-4.74l-1.58,4.74l3.08,0z M39.4502,30l-0.18-1.06c-0.28,0.28-1.3,1.26-3.02,1.26c-2.8,0-4.1-2.04-4.1-5.34c0-3.76,1.8-5.86,5.46-5.86c0.48,0,1.06,0.1,1.5,0.2l0-2.54l-1.6-0.4l0-1.6l4.6-0.16l0,13.36l1.6,0.4l0,1.6z M39.1102,26.66l0-4.96c-0.38-0.18-0.98-0.3-1.56-0.3c-1.7,0-2.3,1.3-2.3,3.3c0,2.02,0.56,3.1,1.92,3.1c1.28,0,1.94-1.14,1.94-1.14z M53.0204,30l-0.36-1.3s-1.54,1.5-3.24,1.5c-1.94,0-3.12-1.14-3.12-3.14c0-2.36,1.78-3.3,4.82-3.3l1.4,0l0-1.1c0-1.02-0.54-1.46-1.54-1.46c-1.02,0-1.76,0.3-1.76,0.3l-0.3,1.26l-1.8,0l-0.14-2.96s2.42-0.8,4.34-0.8c3.04,0,4.2,1.06,4.2,3.96l0,4.94l1.5,0.36l0,1.6z M52.5204,25.46l-1.14,0c-1.56,0-2.18,0.4-2.18,1.3c0,0.76,0.42,1.2,1.18,1.2c1.06,0,2.14-1.16,2.14-1.16l0-1.34z M63.8106,19.2l0.18,1.38s1.44-1.58,2.78-1.58c1.1,0,1.86,0.36,1.86,0.36l-0.16,3.84l-1.8,0l-0.3-1.7c-1.16,0-2.16,1.12-2.16,1.12l0,5.28l2,0.5l0,1.6l-6.6,0l0-1.6l1.6-0.5l0-6.5l-1.6-0.5l0-1.6z M72.6808,26.5l0.16,1.3s0.7,0.2,1.68,0.2c1.1,0,1.64-0.34,1.64-0.98c0-1.64-5.34-1.04-5.34-4.6c0-2.5,2-3.42,4.12-3.42c1.8,0,3.72,0.6,3.72,0.6l-0.08,3l-1.7,0l-0.3-1.2s-0.58-0.2-1.38-0.2c-0.86,0-1.38,0.36-1.38,1.02c0,1.62,5.34,0.92,5.34,4.38c0,2.3-1.86,3.6-4.6,3.6c-1.9,0-3.68-0.44-3.68-0.44l0-3.26l1.8,0z M86.251,14.5l0,5.86c0.58-0.48,1.88-1.36,3.36-1.36c2.04,0,3.14,1.36,3.14,3.6l0,5.3l1.4,0.5l0,1.6l-5.44,0l0-1.6l1.04-0.48l0-4.84c0-1-0.4-1.6-1.32-1.6c-1.12,0-2.18,1.06-2.18,1.06l0,5.36l1.06,0.5l0,1.6l-5.66,0l0-1.6l1.6-0.5l0-11.24l-1.6-0.4l0-1.6z M112.6714,20.2l-0.5-1.72s-0.94-0.32-2.26-0.32c-2.14,0-3.34,1.56-3.34,4.9c0,3.24,1.26,4.64,3.4,4.64c1.04,0,2.2-0.36,2.2-0.36l0-2.52l-1.5-0.46l0-1.64l5.76-0.1l0,1.74l-1.36,0.46l0,4.08s-2.06,1.34-5.44,1.34c-4.06,0-6.4-2.44-6.4-7.08c0-4.7,2.64-7.5,6.74-7.5c2.42,0,4.66,0.94,4.66,0.94l-0.1,3.6l-1.86,0z M118.8216,20.9l0-1.6l4.6-0.1l0,6.9c0,1.1,0.32,1.6,1.22,1.6c1.3,0,2.26-1.08,2.26-1.08l0-5.22l-1.6-0.5l0-1.6l4.6-0.1l0,8.7l1.6,0.4l0,1.56l-4.22,0.14l-0.2-1.4s-1.6,1.6-3.5,1.6c-2,0-3.16-1.34-3.16-3.58l0-5.22z M138.1918,19.2l0.18,1.38s1.44-1.58,2.78-1.58c1.1,0,1.86,0.36,1.86,0.36l-0.16,3.84l-1.8,0l-0.3-1.7c-1.16,0-2.16,1.12-2.16,1.12l0,5.28l2,0.5l0,1.6l-6.6,0l0-1.6l1.6-0.5l0-6.5l-1.6-0.5l0-1.6z M144.802,20.9l0-1.6l4.6-0.1l0,6.9c0,1.1,0.32,1.6,1.22,1.6c1.3,0,2.26-1.08,2.26-1.08l0-5.22l-1.6-0.5l0-1.6l4.6-0.1l0,8.7l1.6,0.4l0,1.56l-4.22,0.14l-0.2-1.4s-1.6,1.6-3.5,1.6c-2,0-3.16-1.34-3.16-3.58l0-5.22z M178.6322,28.4l0,1.6l-5.42,0l0-1.6l1.06-0.5l0-4.76c0-1.1-0.32-1.64-1.16-1.64c-1.3,0-2.22,1.04-2.22,1.04l0,5.36l1.04,0.5l0,1.6l-5.08,0l0-1.6l1.04-0.5l0-4.76c0-1.1-0.28-1.64-1.14-1.64c-1.3,0-2.24,1.04-2.24,1.04l0,5.36l1.06,0.5l0,1.6l-5.6,0l0-1.6l1.54-0.5l0-6.5l-1.52-0.5l0-1.6l4.18-0.1l0.14,1.42s1.74-1.62,3.5-1.62c1.42,0,2.3,0.66,2.76,1.72c0.34-0.34,1.84-1.72,3.62-1.72c2.1,0,3.08,1.36,3.08,3.6l0,5.3z M188.0424,30l-0.36-1.3s-1.54,1.5-3.24,1.5c-1.94,0-3.12-1.14-3.12-3.14c0-2.36,1.78-3.3,4.82-3.3l1.4,0l0-1.1c0-1.02-0.54-1.46-1.54-1.46c-1.02,0-1.76,0.3-1.76,0.3l-0.3,1.26l-1.8,0l-0.14-2.96s2.42-0.8,4.34-0.8c3.04,0,4.2,1.06,4.2,3.96l0,4.94l1.5,0.36l0,1.6z M187.5424,25.46l-1.14,0c-1.56,0-2.18,0.4-2.18,1.3c0,0.76,0.42,1.2,1.18,1.2c1.06,0,2.14-1.16,2.14-1.16l0-1.34z M198.8726,19.2l0.14,1.38s1.9-1.54,3.68-1.54c1.94,0,3.04,1.38,3.04,3.56l0,5.3l1.4,0.5l0,1.6l-5.5,0l0-1.6l1.1-0.5l0-4.76c0-0.92-0.52-1.6-1.36-1.6c-1.24,0-2.14,1.14-2.14,1.14l0,5.22l1.1,0.5l0,1.6l-5.7,0l0-1.6l1.6-0.5l0-6.5l-1.6-0.5l0-1.6z M216.8228,27.44l0.72,1.52c-0.98,0.72-2.1,1.24-3.4,1.24c-2.3,0-2.96-1.6-2.96-3.9l0-4.6l-1.86,0l0-1.94l1.86-0.26l0-2.76l3-0.54l0,3.3l2.8,0l0,2.2l-2.8,0l0,4.4c0,1.28,0.22,1.8,1.06,1.8c0.54,0,1.32-0.32,1.58-0.46z M224.033,19.2l0.18,1.38s1.44-1.58,2.78-1.58c1.1,0,1.86,0.36,1.86,0.36l-0.16,3.84l-1.8,0l-0.3-1.7c-1.16,0-2.16,1.12-2.16,1.12l0,5.28l2,0.5l0,1.6l-6.6,0l0-1.6l1.6-0.5l0-6.5l-1.6-0.5l0-1.6z M237.8632,30l-0.36-1.3s-1.54,1.5-3.24,1.5c-1.94,0-3.12-1.14-3.12-3.14c0-2.36,1.78-3.3,4.82-3.3l1.4,0l0-1.1c0-1.02-0.54-1.46-1.54-1.46c-1.02,0-1.76,0.3-1.76,0.3l-0.3,1.26l-1.8,0l-0.14-2.96s2.42-0.8,4.34-0.8c3.04,0,4.2,1.06,4.2,3.96l0,4.94l1.5,0.36l0,1.6z M237.3632,25.46l-1.14,0c-1.56,0-2.18,0.4-2.18,1.3c0,0.76,0.42,1.2,1.18,1.2c1.06,0,2.14-1.16,2.14-1.16l0-1.34z"/><path fill="#" d="M259.1934,20.4l-0.46-1.92s-0.94-0.32-2.24-0.32c-2.1,0-3.3,1.56-3.3,4.9c0,3.24,1.3,4.6,3.4,4.6c2,0,3.8-1.4,3.8-1.4l1.1,1.8s-2.1,2.18-5.24,2.18c-4.06,0-6.4-2.44-6.4-7.08c0-4.7,2.64-7.5,6.74-7.5c2.42,0,4.66,0.94,4.66,0.94l-0.1,3.8l-1.96,0z M268.5036,27.9l1.8,0.5l0,1.6l-6.42,0l0-1.6l1.6-0.5l0-11.24l-1.6-0.4l0-1.6l4.62-0.16l0,13.4z M279.3138,30l-0.36-1.3s-1.54,1.5-3.24,1.5c-1.94,0-3.12-1.14-3.12-3.14c0-2.36,1.78-3.3,4.82-3.3l1.4,0l0-1.1c0-1.02-0.54-1.46-1.54-1.46c-1.02,0-1.76,0.3-1.76,0.3l-0.3,1.26l-1.8,0l-0.14-2.96s2.42-0.8,4.34-0.8c3.04,0,4.2,1.06,4.2,3.96l0,4.94l1.5,0.36l0,1.6z M278.8138,25.46l-1.14,0c-1.56,0-2.18,0.4-2.18,1.3c0,0.76,0.42,1.2,1.18,1.2c1.06,0,2.14-1.16,2.14-1.16l0-1.34z M287.764,26.5l0.16,1.3s0.7,0.2,1.68,0.2c1.1,0,1.64-0.34,1.64-0.98c0-1.64-5.34-1.04-5.34-4.6c0-2.5,2-3.42,4.12-3.42c1.8,0,3.72,0.6,3.72,0.6l-0.08,3l-1.7,0l-0.3-1.2s-0.58-0.2-1.38-0.2c-0.86,0-1.38,0.36-1.38,1.02c0,1.62,5.34,0.92,5.34,4.38c0,2.3-1.86,3.6-4.6,3.6c-1.9,0-3.68-0.44-3.68-0.44l0-3.26l1.8,0z M298.8942,26.5l0.16,1.3s0.7,0.2,1.68,0.2c1.1,0,1.64-0.34,1.64-0.98c0-1.64-5.34-1.04-5.34-4.6c0-2.5,2-3.42,4.12-3.42c1.8,0,3.72,0.6,3.72,0.6l-0.08,3l-1.7,0l-0.3-1.2s-0.58-0.2-1.38-0.2c-0.86,0-1.38,0.36-1.38,1.02c0,1.62,5.34,0.92,5.34,4.38c0,2.3-1.86,3.6-4.6,3.6c-1.9,0-3.68-0.44-3.68-0.44l0-3.26l1.8,0z M317.9244,25.26l-6.64,0c0.12,1.6,1.04,2.54,2.42,2.54c1.66,0,3.36-0.94,3.36-0.94l0.86,1.66s-2,1.68-4.56,1.68c-3.44,0-5.2-2-5.2-5.4c0-3.5,1.98-5.8,5.34-5.8c2.98,0,4.54,1.84,4.54,4.7c0,0.76-0.12,1.5-0.12,1.56z M311.3244,23.4l3.62,0c0-1.14-0.48-2-1.64-2c-1.12,0-1.82,0.82-1.98,2z M322.6946,26.5l0.16,1.3s0.7,0.2,1.68,0.2c1.1,0,1.64-0.34,1.64-0.98c0-1.64-5.34-1.04-5.34-4.6c0-2.5,2-3.42,4.12-3.42c1.8,0,3.72,0.6,3.72,0.6l-0.08,3l-1.7,0l-0.3-1.2s-0.58-0.2-1.38-0.2c-0.86,0-1.38,0.36-1.38,1.02c0,1.62,5.34,0.92,5.34,4.38c0,2.3-1.86,3.6-4.6,3.6c-1.9,0-3.68-0.44-3.68-0.44l0-3.26l1.8,0z"/></svg>
