<?xml version="1.0" standalone="no"?>
<!DOCTYPE svg PUBLIC "-//W3C//DTD SVG 20010904//EN"
 "http://www.w3.org/TR/2001/REC-SVG-20010904/DTD/svg10.dtd">
<svg version="1.0" xmlns="http://www.w3.org/2000/svg"
 width="70.000000pt" height="70.000000pt" viewBox="0 0 70.000000 70.000000"
 preserveAspectRatio="xMidYMid meet">

<g transform="translate(0.000000,70.000000) scale(0.100000,-0.100000)"
fill="#000000" stroke="none">
<path d="M50 687 c-46 -23 -50 -46 -50 -290 0 -222 0 -227 19 -217 11 5 38 10
60 10 l41 0 0 255 0 255 -22 0 c-13 0 -34 -6 -48 -13z"/>
<path d="M170 445 l0 -255 89 0 89 0 13 31 c29 71 105 129 169 129 l30 0 0
175 0 175 -195 0 -195 0 0 -255z m260 115 c0 -18 -7 -20 -70 -20 -63 0 -70 2
-70 20 0 18 7 20 70 20 63 0 70 -2 70 -20z m40 -90 c0 -20 -5 -21 -112 -18
-98 3 -113 5 -116 21 -3 15 7 17 112 17 110 0 116 -1 116 -20z"/>
<path d="M463 289 c-101 -65 -97 -211 8 -267 136 -73 280 71 207 207 -14 26
-38 51 -58 62 -46 25 -116 24 -157 -2z m97 -59 c0 -11 -6 -20 -13 -20 -19 0
-27 10 -20 26 8 21 33 17 33 -6z m2 -100 c3 -46 1 -50 -19 -50 -21 0 -23 5
-23 50 0 42 3 50 19 50 16 0 20 -9 23 -50z"/>
<path d="M29 131 c-36 -36 -37 -73 -4 -106 24 -25 26 -25 210 -25 l187 0 -24
29 -23 30 -138 0 c-126 1 -138 3 -135 18 3 16 18 18 129 21 l125 3 -4 29 -4
30 -145 0 -145 0 -29 -29z"/>
</g>
</svg>
