<?xml version="1.0" standalone="no"?>
<!DOCTYPE svg PUBLIC "-//W3C//DTD SVG 20010904//EN"
 "http://www.w3.org/TR/2001/REC-SVG-20010904/DTD/svg10.dtd">
<svg version="1.0" xmlns="http://www.w3.org/2000/svg"
 width="80.000000pt" height="80.000000pt" viewBox="0 0 80.000000 80.000000"
 preserveAspectRatio="xMidYMid meet">

<g transform="translate(0.000000,80.000000) scale(0.100000,-0.100000)"
fill="#000000" stroke="none">
<path d="M265 665 c-72 -30 -158 -67 -193 -81 -35 -15 -60 -30 -55 -34 4 -4
93 -42 196 -85 l188 -77 157 65 c86 36 175 73 197 82 l39 17 -24 13 c-25 13
-368 155 -373 155 -1 -1 -60 -25 -132 -55z m154 -99 c17 -20 -13 -43 -34 -26
-12 10 -13 16 -4 26 6 8 15 14 19 14 4 0 13 -6 19 -14z"/>
<path d="M673 453 c-9 -3 -13 -29 -13 -78 0 -66 -3 -77 -25 -99 -14 -14 -25
-33 -25 -43 -1 -18 61 -143 70 -143 11 0 70 120 70 144 0 15 -10 33 -26 45
-24 19 -25 24 -22 101 3 78 0 85 -29 73z"/>
<path d="M190 376 l0 -44 105 -42 105 -42 105 42 105 42 0 44 c0 24 -3 44 -6
44 -3 0 -50 -19 -105 -41 l-99 -41 -99 41 c-55 22 -102 41 -105 41 -3 0 -6
-20 -6 -44z"/>
</g>
</svg>
